<svg id="svg" version="1.1" xmlns="http://www.w3.org/2000/svg" xmlns:xlink="http://www.w3.org/1999/xlink" width="400"
    height="400" viewBox="0, 0, 400,400">
      <defs>
    <linearGradient id="gradient">
      <stop class="stop1" offset="0%" />
      <stop class="stop2" offset="100%" />
    </linearGradient>
    <style>
      <![CDATA[
              #rect1 { fill: url(#gradient); }
              .stop1 { stop-color: #9553E9; }
              .stop2 { stop-color: #6970E6;}
            ]]>
    </style>
  </defs>
    <g id="svgg">
        <rect width="100%" height="100%" fill="url(#gradient)" />
        <path id="path1"
            d="M54.984 118.825 C 54.628 119.401,51.671 116.372,95.100 159.925 C 127.205 192.122,134.000 199.123,134.000 200.003 C 134.000 200.879,129.004 206.088,105.900 229.302 C 90.445 244.831,74.083 261.285,69.540 265.868 C 64.997 270.451,60.137 275.267,58.740 276.572 C 55.737 279.376,54.593 281.017,55.315 281.485 C 55.582 281.658,74.033 281.848,96.317 281.907 L 136.834 282.015 138.317 280.910 C 139.133 280.302,152.940 266.643,169.000 250.558 C 215.699 203.784,218.400 201.023,218.400 200.068 C 218.400 199.481,215.807 196.592,210.300 191.042 C 205.845 186.552,197.685 178.316,192.167 172.739 C 186.649 167.163,179.899 160.418,177.167 157.750 C 174.435 155.083,165.990 146.548,158.400 138.784 C 150.810 131.020,142.987 123.257,141.015 121.534 L 137.431 118.400 96.339 118.400 C 67.752 118.400,55.167 118.529,54.984 118.825 M182.680 118.654 C 182.150 119.184,193.985 131.550,214.338 151.733 C 219.035 156.390,227.585 164.960,233.338 170.777 C 239.092 176.594,247.805 185.363,252.700 190.263 C 258.946 196.515,261.600 199.437,261.600 200.059 C 261.600 201.020,254.958 207.843,221.369 241.392 C 189.981 272.741,182.214 280.774,182.761 281.321 C 183.282 281.843,259.379 282.284,263.526 281.790 L 265.652 281.536 276.926 270.149 C 283.127 263.886,301.205 245.730,317.100 229.801 C 336.289 210.571,346.000 200.568,346.000 200.031 C 346.000 199.492,332.555 185.746,305.682 158.811 L 265.364 118.400 224.149 118.400 C 201.480 118.400,182.819 118.514,182.680 118.654 "
            stroke="none" fill="#fbfafc" fill-rule="evenodd"></path>
    </g>
</svg>